<svg width="1200" height="630" viewBox="0 0 1200 630" fill="none" xmlns="http://www.w3.org/2000/svg">
  <rect width="1200" height="630" fill="#FFF7ED"/>
  <rect x="36" y="36" width="1128" height="558" rx="36" fill="url(#bg)"/>
  <circle cx="1022" cy="120" r="132" fill="#FCA5A5" fill-opacity="0.2"/>
  <circle cx="118" cy="548" r="174" fill="#FDBA74" fill-opacity="0.18"/>
  <rect x="96" y="92" width="156" height="44" rx="22" fill="#166534"/>
  <text x="174" y="121" text-anchor="middle" font-family="Arial, sans-serif" font-size="20" font-weight="700" fill="#FFFFFF">Savings</text>
  <text x="96" y="222" font-family="Georgia, 'Times New Roman', serif" font-size="64" font-weight="700" fill="#0F172A">
    <tspan x="96" dy="0">Emergency Fund</tspan>
    <tspan x="96" dy="76">Calculator</tspan>
  </text>
  <text x="96" y="362" font-family="Arial, sans-serif" font-size="30" fill="#334155">
    <tspan x="96" dy="0">Set a realistic cash cushion based on expenses,</tspan>
    <tspan x="96" dy="42">risk, and how long funding may take.</tspan>
  </text>
  <rect x="96" y="452" width="420" height="74" rx="28" fill="#FFFFFF"/>
  <text x="126" y="497" font-family="Arial, sans-serif" font-size="28" font-weight="700" fill="#0F172A">Everyday Money Tools</text>
  <text x="126" y="529" font-family="Arial, sans-serif" font-size="20" fill="#64748B">moneytools.51nav.com</text>
  <rect x="846" y="226" width="260" height="198" rx="32" fill="#FFFFFF" stroke="#0F172A" stroke-width="16"/>
  <path d="M906 278C906 248.176 930.176 224 960 224H992C1021.82 224 1046 248.176 1046 278V304H906V278Z" fill="#0F172A"/>
  <rect x="960" y="314" width="32" height="74" rx="16" fill="#166534"/>
  <defs>
    <linearGradient id="bg" x1="70" y1="70" x2="1130" y2="590" gradientUnits="userSpaceOnUse">
      <stop stop-color="#FFFFFF"/>
      <stop offset="0.54" stop-color="#F0FDF4"/>
      <stop offset="1" stop-color="#FFEDD5"/>
    </linearGradient>
  </defs>
</svg>
